PathFileType	4	(X/Y/Z)	C:\Users\WrightLab\Desktop\Jo\P1.2Trial16.trc
DataRate	CameraRate	NumFrames	NumMarkers	Units	OrigDataRate	OrigDataStartFrame	OrigNumFrames
100.00	100.00	       12	19	mm	100.00	58	       463
Frame#	Time	Headset_Front			Headset_Back			Headset_Left			Headset_Right			Left_Shoulder			Right_Shoulder			Sternum			C7			Left Elbow			Right Elbow			Left Wrist			Right Wrist			Left ASIS			Right ASIS			S2			Left Knee			Right Knee			Left Ankle			Right Ankle			
		X1	Y1	Z1	X2	Y2	Z2	X3	Y3	Z3	X4	Y4	Z4	X5	Y5	Z5	X6	Y6	Z6	X7	Y7	Z7	X8	Y8	Z8	X9	Y9	Z9	X10	Y10	Z10	X11	Y11	Z11	X12	Y12	Z12	X13	Y13	Z13	X14	Y14	Z14	X15	Y15	Z15	X16	Y16	Z16	X17	Y17	Z17	X18	Y18	Z18	X19	Y19	Z19	

58	0.570	-584.23157	1357.49658	-248.28949	-607.35870	1495.32776	-514.93335	-488.04230	1421.50391	-419.77109	-700.69543	1409.48352	-329.31885	-397.35388	1210.29358	-486.66519	-824.26770	1234.02368	-454.27628	-606.02008	1157.96606	-351.99146	-616.90857	1287.58557	-579.83636	-335.26105	924.22388	-527.09930	-898.65680	990.55255	-530.08716	-308.77100	721.30292	-389.07687	-971.54974	739.91949	-473.02606	-479.16650	842.21033	-369.34506	-764.21667	839.38434	-365.98514	-620.45282	885.09076	-644.26257	-515.35040	401.63214	-450.23718	-780.45654	461.16000	-290.87399	-567.25348	63.95473	-600.84167	-833.01215	144.80013	-209.76318	
59	0.580	-583.98413	1357.03577	-238.17368	-607.88135	1493.69812	-504.93335	-488.16617	1419.55115	-410.57895	-698.68622	1407.32520	-318.72592	-397.90057	1208.70178	-479.64835	-825.79456	1232.95728	-443.42401	-604.13171	1156.41382	-341.27557	-618.61914	1285.41663	-569.20831	-336.52371	922.02435	-519.74969	-899.88245	988.95551	-518.33569	-310.09695	719.26373	-383.46872	-972.78662	738.93494	-461.23453	-480.28302	840.38696	-364.97061	-765.02234	838.07086	-353.28946	-624.21423	883.75397	-635.08734	-513.87177	400.94754	-445.35114	-778.96277	460.90683	-281.17029	-567.23804	63.93367	-600.82410	-827.33228	150.16833	-185.04584	
60	0.590	-583.00159	1354.73474	-228.56593	-609.01086	1492.21460	-496.13464	-488.80527	1417.75439	-401.79196	-700.29810	1407.06763	-309.09332	-399.01950	1207.08911	-471.61652	-825.75977	1231.17847	-431.72104	-603.54865	1154.67090	-331.15167	-619.59131	1284.75269	-561.12964	-337.47833	919.94708	-512.50775	-901.03290	987.85223	-506.94290	-311.23337	716.68207	-376.90588	-974.11615	737.67761	-449.39114	-481.45776	838.05084	-358.36136	-765.36053	833.04987	-350.19818	-627.88190	882.12360	-625.58240	-512.82794	399.15475	-441.65454	-776.97687	459.50900	-271.71048	-567.22144	63.91117	-600.80530	-822.57080	156.27534	-164.14293	
61	0.600	-583.27637	1353.78845	-216.98976	-609.66907	1490.40686	-486.14636	-488.64194	1416.54724	-393.16940	-700.04852	1406.05701	-299.36139	-399.82709	1204.31458	-463.02045	-826.46338	1228.81848	-419.83401	-603.84387	1153.85620	-321.72226	-621.53961	1281.87134	-549.80280	-338.16385	918.23523	-506.09775	-902.40338	986.12433	-495.25644	-311.25406	714.64301	-372.20129	-974.98450	736.08783	-437.48489	-482.12225	836.62964	-350.41367	-765.37817	831.96875	-336.67596	-631.72534	880.87805	-616.56097	-511.36313	397.64157	-438.04721	-773.95007	458.65750	-261.29507	-566.94324	63.88941	-600.18195	-817.28046	160.91101	-144.78294	
62	0.610	-581.71393	1351.98657	-208.70653	-610.85986	1488.81189	-477.33725	-488.70462	1414.42114	-384.39621	-697.55872	1403.02197	-288.57111	-400.87085	1202.35486	-455.22134	-827.96545	1228.27808	-408.93936	-603.25470	1152.31787	-311.14948	-623.45471	1279.89001	-540.11548	-340.92465	916.42749	-498.65265	-903.60516	984.26111	-482.63217	-311.28687	711.89337	-365.34369	-976.07568	734.05481	-424.58151	-483.49435	834.90216	-342.54916	-766.13574	830.08350	-326.31540	-635.10065	878.54266	-606.67535	-511.49716	395.59631	-433.17960	-772.07397	457.78220	-250.47000	-566.92438	63.86378	-600.16052	-813.05280	164.85497	-127.08562	
63	0.620	-578.88507	1350.96765	-192.04883	-611.85077	1486.43750	-467.15677	-489.68414	1412.12634	-374.90280	-698.37250	1400.94434	-278.46719	-402.47821	1200.67981	-447.32687	-827.96313	1225.57129	-396.48840	-602.65771	1149.90710	-300.65567	-625.14587	1277.68628	-530.17957	-342.87012	914.12909	-491.08044	-905.13702	982.80090	-470.28830	-311.88721	709.12396	-359.76642	-977.26160	732.47229	-412.49484	-484.05048	833.24573	-335.55066	-763.96411	830.81610	-302.74603	-638.18951	876.45367	-597.01935	-509.12335	394.21805	-428.99554	-769.82886	457.29672	-239.09911	-566.62177	64.26518	-600.39581	-806.65015	167.19337	-112.09785	
64	0.630	-580.36920	1349.46631	-188.77354	-612.58795	1484.87341	-458.24344	-489.68954	1410.91431	-366.40442	-697.36871	1399.35474	-268.14755	-403.31143	1198.91882	-439.39133	-828.64453	1224.09021	-384.02765	-602.99573	1149.28345	-290.71359	-627.66736	1276.41968	-519.88141	-344.30933	912.36877	-484.60428	-909.34875	983.08002	-459.54709	-311.82550	707.10278	-354.60983	-978.56671	730.94647	-399.67581	-485.85614	831.75519	-329.51993	-764.50098	828.55920	-294.00977	-641.68042	874.35388	-586.74725	-508.65955	392.98053	-424.26196	-768.90601	455.20999	-227.09596	-566.46869	64.34312	-600.39880	-802.16864	167.79073	-99.02451	
65	0.640	-578.07770	1348.08728	-172.94395	-614.27563	1482.84900	-448.86636	-490.37823	1409.34680	-358.52457	-696.50995	1397.88940	-257.63977	-405.03958	1196.50562	-431.74936	-829.76123	1222.79126	-372.88071	-602.03943	1147.35620	-281.03986	-629.65558	1274.20972	-510.19522	-346.05893	910.56744	-477.83868	-910.32843	980.23944	-446.16138	-312.25226	704.67194	-350.16135	-979.57611	729.32684	-386.68723	-486.95135	830.05658	-321.52341	-762.50787	828.08221	-282.38525	-645.49817	872.67688	-577.03119	-508.55066	391.88843	-418.39114	-768.25757	454.54364	-213.07275	-566.36029	64.99818	-600.59106	-796.76398	166.39694	-87.33256	
66	0.650	-578.64398	1347.34167	-168.57507	-615.34058	1481.22021	-438.75323	-491.00381	1407.80432	-349.46326	-697.26764	1397.53528	-248.05510	-406.24582	1195.02026	-423.94119	-831.04242	1221.26123	-361.15024	-602.80664	1144.93811	-271.81442	-631.78210	1272.29785	-499.88043	-347.97842	909.07715	-471.75601	-910.68274	978.58405	-432.84259	-311.37454	702.59772	-345.07886	-980.63794	727.31866	-373.83841	-487.66406	828.84955	-313.96228	-762.52423	825.45551	-270.60757	-648.49530	871.38843	-566.97485	-507.34402	391.00693	-411.89713	-766.20990	453.38873	-198.91290	-566.50153	66.31512	-599.66382	-792.96021	162.70897	-77.44347	
67	0.660	-575.71149	1345.73474	-154.87366	-616.70862	1479.75830	-429.36581	-491.75607	1405.40515	-340.20853	-696.15790	1396.00940	-237.32385	-407.87476	1193.26392	-416.04535	-831.61823	1219.51489	-347.97534	-602.76685	1143.27820	-261.38263	-634.08630	1271.01025	-490.15256	-349.52472	907.39911	-465.26932	-910.93536	975.74823	-418.87375	-311.73209	699.97601	-339.74948	-981.94800	725.38556	-360.10553	-487.93280	827.54364	-304.88464	-761.88989	825.18243	-257.16815	-651.45502	869.07745	-556.02625	-507.01807	388.44269	-403.94513	-762.47278	451.85934	-187.21275	-565.81067	67.51380	-598.82080	-787.82434	156.39101	-69.10769	
68	0.670	-574.70941	1345.62170	-144.89589	-618.27173	1478.57178	-420.07788	-492.74408	1404.39050	-332.44559	-695.39508	1394.47375	-226.45456	-409.26123	1192.45105	-408.29105	-833.04822	1218.35901	-336.22180	-602.80042	1142.66406	-251.66563	-636.32422	1268.90564	-479.42331	-352.70529	905.54120	-458.23666	-912.51532	974.14258	-405.82681	-311.94531	698.18878	-335.26086	-983.93567	723.69128	-345.78189	-488.74426	826.11176	-296.34323	-761.55377	823.17853	-245.23953	-654.20441	867.44659	-545.11420	-508.47073	387.35016	-396.29953	-759.57751	450.68622	-172.92502	-566.10748	68.79753	-597.79559	-783.27832	149.50545	-61.87782	
69	0.680	-573.47363	1343.72644	-136.78879	-619.76892	1477.24182	-410.19162	-493.11087	1402.95435	-323.01758	-696.07825	1394.53125	-215.44202	-411.59427	1190.48315	-400.40109	-834.22113	1217.39172	-324.59436	-601.84241	1141.53735	-240.95053	-639.19452	1267.36792	-469.00082	-354.90442	904.72247	-451.58582	-914.34277	972.06390	-391.43030	-312.52878	695.98529	-330.19360	-985.34283	722.72400	-332.29672	-488.18411	824.95886	-287.16843	-759.77887	821.46057	-233.86058	-656.64825	866.03998	-534.07007	-507.66251	386.80600	-388.88229	-757.98492	448.17154	-159.62442	-564.78894	71.27843	-596.57379	-778.60339	141.73288	-56.84374	
